<svg width="461" height="102" viewBox="0 0 461 102" fill="none" xmlns="http://www.w3.org/2000/svg">
<path d="M29.0342 69.1638C19.3751 74.7884 10.3202 81.1382 1.28943 88.4147C13.8809 71.7585 28.7201 58.1966 44.8401 44.8523H63.9972L57.2302 55.3843C57.2302 55.3843 49.005 58.9541 44.8401 60.8639C39.3217 63.3941 34.1095 66.1984 29.0342 69.1557" fill="#9CE7C4"/>
<path d="M63.9972 44.8523L57.2302 55.3843L57.1819 55.4004C68.5489 65.4892 79.078 76.1018 88.3827 88.4067C81.8735 72.6046 73.6 58.938 63.9972 44.8442L63.9972 44.8523Z" fill="#9CE7C4"/>
<path d="M1.28943 88.4147C5.53493 78.1164 10.5216 68.7205 16.1447 59.5261C19.1496 54.6106 22.3961 49.7999 25.6749 44.8522C27.4069 42.2333 32.4822 34.3041 32.4822 34.3041L44.832 28.8406V44.8522C28.7201 58.1965 13.8809 71.7585 1.28943 88.4147Z" fill="#33C481"/>
<path d="M44.8401 44.8523L44.8401 28.8407C60.5251 20.8309 74.6151 12.402 88.3908 1.29786C75.7993 17.9541 60.9602 31.516 44.8401 44.8603L44.8401 44.8523Z" fill="#054743"/>
<path d="M44.8401 44.8523H63.9972C73.6 30.7586 81.8735 17.0919 88.3827 1.28979C75.7912 17.946 60.9521 31.5079 44.832 44.8522L44.8401 44.8523Z" fill="#2EA8A0"/>
<path d="M44.8401 60.872C60.5332 68.8818 74.6231 77.3106 88.3908 88.4148C79.0861 76.11 68.557 65.4974 57.19 55.4086C56.5616 55.6825 48.8359 59.0428 44.8482 60.872H44.8401Z" fill="#33C481"/>
<path d="M32.4903 34.3041L44.8401 28.8407C29.1471 20.8309 15.0571 12.402 1.28943 1.29782C10.5941 13.6026 21.1233 24.2153 32.4903 34.3041Z" fill="#9CE7C4"/>
<path d="M32.4903 34.3041C21.1233 24.2153 10.5941 13.6026 1.28943 1.29782C7.79867 17.0999 16.0722 30.7666 25.6749 44.8603C27.4069 42.2414 32.4822 34.3121 32.4822 34.3121L32.4903 34.3041Z" fill="#33C481"/>
<path d="M162.313 52.8741C161.459 62.3247 158.007 69.549 151.958 74.5646C146.666 78.9116 139.913 81.085 131.724 81.085C120.973 81.085 112.643 77.3365 106.717 69.8394C101.575 63.319 99.0129 54.8012 99.0129 44.2771C99.0129 33.753 102.227 24.2408 108.655 17.1573C114.58 10.6017 122.523 7.32837 132.481 7.32837C142.44 7.32837 149.766 10.3202 155.313 16.3038C159.126 20.4307 161.256 25.0328 161.697 30.1012H152.337C151.201 25.1208 148.665 21.3106 144.72 18.6708C141.286 16.3742 137.139 15.2214 132.288 15.2214C123.843 15.2214 117.486 18.6532 113.233 25.5255C110.019 30.726 108.408 36.956 108.408 44.2331C108.408 53.7452 110.838 61.1191 115.69 66.346C119.881 70.9129 125.384 73.2007 132.191 73.2007C138.592 73.2007 143.584 71.2297 147.177 67.2963C150.329 63.8646 152.284 59.0601 153.041 52.8829H162.304L162.313 52.8741Z" fill="#033935"/>
<path d="M186.632 8.92992V29.5821C186.632 30.2157 186.571 32.2396 186.447 35.6801C190.26 29.7933 195.939 26.8455 203.468 26.8455C210.996 26.8455 215.98 29.3973 218.692 34.501C219.986 36.9912 220.629 40.907 220.629 46.2658V79.4836H212.211V47.3041C212.211 42.7988 211.656 39.7279 210.556 38.0912C208.698 35.3193 205.528 33.929 201.055 33.929C198.097 33.929 195.473 34.6242 193.21 36.0057C190.973 37.396 189.318 39.3319 188.244 41.8133C187.583 43.3268 187.143 44.9459 186.923 46.6794C186.738 48.4129 186.641 51.2903 186.641 55.3292V79.4748H178.223V8.92992H186.641H186.632Z" fill="#033935"/>
<path d="M283.859 72.7169V79.2813C281.904 79.9764 279.932 80.3196 277.95 80.3196C275.652 80.3196 273.856 79.6596 272.562 78.3309C271.303 77.011 270.651 75.1367 270.625 72.7081C265.861 78.2165 259.706 80.9795 252.143 80.9795C246.719 80.9795 242.545 79.5012 239.613 76.5358C237.024 73.984 235.739 70.6138 235.739 66.4253C235.739 59.7202 238.953 55.0741 245.38 52.4871C247.018 51.8271 248.568 51.3695 250.012 51.1144C251.465 50.8328 255.163 50.3312 261.124 49.6009C264.531 49.1873 266.874 48.5009 268.168 47.5242C269.462 46.5475 270.105 44.9724 270.105 42.7989C270.105 36.8417 266.257 33.8675 258.57 33.8675C254.282 33.8675 251.148 34.809 249.166 36.7009C247.432 38.3376 246.375 40.8894 245.997 44.3564H237.773C237.896 38.4696 240.106 33.9731 244.394 30.8933C248.11 28.1831 253.05 26.828 259.196 26.828C266.38 26.828 271.725 28.5175 275.221 31.8876C276.48 33.1196 277.361 34.6243 277.871 36.4193C278.408 38.2144 278.672 40.731 278.672 43.978C278.672 50.9736 278.567 57.9779 278.338 64.9998C278.303 66.3197 278.294 67.3581 278.294 68.1148C278.294 70.0067 278.549 71.3442 279.051 72.1273C279.553 72.8841 280.407 73.2625 281.605 73.2625C282.3 73.2625 283.057 73.0777 283.876 72.6993L283.859 72.7169ZM270.246 52.971C269.048 53.8246 267.789 54.4317 266.46 54.8101C265.165 55.1533 262.665 55.5493 258.94 55.9892C253.992 56.6228 250.575 57.4235 248.682 58.4003C245.812 59.8786 244.376 62.3248 244.376 65.7214C244.376 68.59 245.398 70.8074 247.449 72.3825C249.246 73.7376 251.606 74.4152 254.538 74.4152C257.47 74.4152 260.058 73.7992 262.577 72.5761C265.095 71.3442 267.103 69.6811 268.582 67.5692C269.242 66.6541 269.682 65.7302 269.903 64.7798C270.123 63.8383 270.237 62.4304 270.237 60.5737V52.971H270.246Z" fill="#033935"/>
<path d="M306.294 28.3062V36.2873C307.809 34.1138 309.191 32.4771 310.459 31.3772C314.087 28.3238 318.604 26.7927 324.028 26.7927C327.4 26.7927 330.376 27.4526 332.965 28.7814C335.545 30.0749 337.473 31.8963 338.732 34.2634C339.551 35.7417 340.106 37.352 340.387 39.0855C340.704 40.7838 340.863 43.23 340.863 46.4066V79.4835H332.445V49.3808C332.445 45.9754 332.322 43.5204 332.067 42.0069C331.847 40.467 331.406 39.1735 330.746 38.1351C328.888 35.3017 325.78 33.885 321.43 33.885C318.533 33.885 315.927 34.5802 313.629 35.9617C311.357 37.352 309.693 39.2351 308.619 41.6285C307.456 44.2771 306.866 48.6328 306.866 54.7132V79.4747H298.449V28.3062H306.294Z" fill="#033935"/>
<path d="M404.216 18.0462H403.697C401.135 18.0462 398.784 18.6006 396.635 19.7093C394.487 20.7476 392.796 22.2699 391.546 24.2762C390.648 25.7281 390.075 27.356 389.829 29.1599C389.609 29.0543 389.389 28.9399 389.16 28.8343C385.972 27.312 382.309 26.5552 378.153 26.5552C373.997 26.5552 370.334 27.312 367.147 28.8343C363.959 30.2862 361.441 32.3277 359.566 34.9587C357.769 37.5897 356.862 40.6343 356.862 44.0925C356.862 49.2137 358.694 53.4286 362.366 56.7548C363.14 57.4412 363.995 58.0395 364.91 58.5763C363.184 59.2274 361.749 60.1074 360.596 61.2161C358.518 63.2224 357.479 65.6422 357.479 68.4756C357.479 71.309 358.271 73.4913 359.865 75.0136C360.816 75.8407 361.881 76.5183 363.052 77.0814C360.517 77.6622 358.579 78.7005 357.267 80.2052C355.471 82.4227 354.564 84.9129 354.564 87.6759C354.564 91.5477 356.572 94.8738 360.587 97.6369C364.673 100.4 370.801 101.79 378.963 101.79C383.665 101.79 387.892 101.095 391.634 99.7135C395.438 98.4024 398.449 96.4929 400.668 94.0027C402.948 91.5125 404.093 88.5735 404.093 85.1857C404.093 81.4548 402.711 78.4806 399.937 76.2631C397.172 73.9841 393.324 72.8401 388.411 72.8401H373.249C370.686 72.8401 368.679 72.3914 367.226 71.4938C365.844 70.5259 365.148 69.074 365.148 67.1381C365.148 65.5454 365.844 64.0935 367.226 62.7824C368.08 61.9641 369.286 61.3393 370.81 60.8817C373.002 61.3833 375.441 61.6385 378.127 61.6385C382.283 61.6385 385.946 60.9081 389.133 59.4562C392.382 57.9339 394.909 55.8573 396.714 53.2262C398.511 50.5248 399.418 47.489 399.418 44.0925C399.418 40.6959 398.519 37.5897 396.714 34.9587C396.151 34.1403 395.508 33.3836 394.804 32.6708C395.033 30.339 395.904 28.6055 397.436 27.488C399.303 26.1065 401.936 25.4113 405.326 25.4113H406.057L404.19 18.0462H404.216ZM370.158 79.994H386.148C390.023 79.994 392.69 80.5484 394.143 81.6571C395.667 82.7659 396.424 84.253 396.424 86.1184C396.424 87.6407 395.799 89.0574 394.557 90.3686C393.316 91.6797 391.37 92.7532 388.746 93.5891C386.183 94.4163 382.899 94.8298 378.884 94.8298C373.689 94.8298 369.612 94.0731 366.636 92.5508C363.73 91.0285 362.278 88.987 362.278 86.4264C362.278 84.4202 363.035 82.8275 364.558 81.6571C366.081 80.5484 367.948 79.994 370.167 79.994H370.158ZM387.187 51.8711C384.766 53.8774 381.754 54.8805 378.153 54.8805C374.552 54.8805 371.541 53.8774 369.119 51.8711C366.698 49.8649 365.483 47.2691 365.483 44.0925C365.483 40.9159 366.698 38.2497 369.119 36.3138C371.541 34.3075 374.552 33.3044 378.153 33.3044C381.754 33.3044 384.766 34.3075 387.187 36.3138C389.609 38.2497 390.824 40.8455 390.824 44.0925C390.824 47.3394 389.609 49.8649 387.187 51.8711Z" fill="#033935"/>
<path d="M459.952 63.1255C457.302 75.0047 449.853 80.9355 437.587 80.9355C429.61 80.9355 423.438 78.2253 419.053 72.8049C415.266 68.1148 413.382 61.9376 413.382 54.2821C413.382 45.6499 415.9 38.7512 420.946 33.5859C425.331 29.0806 430.781 26.828 437.306 26.828C442.316 26.828 446.727 28.1655 450.54 30.8405C453.85 33.1724 456.36 36.3049 458.059 40.2471C459.732 44.0924 460.569 49.3545 460.569 56.0244H422.037C422.443 67.93 427.822 73.8872 438.16 73.8872C441.717 73.8872 444.561 73.0513 446.674 71.3794C448.814 69.6811 450.504 66.9181 451.737 63.1079H459.961L459.952 63.1255ZM451.869 49.1433C451.455 44.0396 449.791 40.1327 446.859 37.4225C444.306 35.0642 441.048 33.8763 437.077 33.8763C428.5 33.8763 423.526 38.9624 422.134 49.1345H451.869V49.1433Z" fill="#033935"/>
</svg>
